<?xml version="1.0" standalone="no"?>
<!DOCTYPE svg PUBLIC "-//W3C//DTD SVG 20010904//EN"
 "http://www.w3.org/TR/2001/REC-SVG-20010904/DTD/svg10.dtd">
<svg version="1.0" xmlns="http://www.w3.org/2000/svg"
 width="1280.000000pt" height="1280.000000pt" viewBox="0 0 1280.000000 1280.000000"
 preserveAspectRatio="xMidYMid meet">
<metadata>
Created by potrace 1.11, written by Peter Selinger 2001-2013
</metadata>
<g transform="translate(0.000000,1280.000000) scale(0.100000,-0.100000)"
fill="#000000" stroke="none">
<path d="M9758 10074 c-15 -8 -32 -23 -38 -34 -7 -13 -10 -1185 -10 -3637 l0
-3618 24 -30 24 -30 112 0 c110 0 112 0 136 28 l24 28 0 3626 0 3625 -31 29
c-30 28 -35 29 -123 29 -61 -1 -100 -6 -118 -16z"/>
<path d="M2193 10050 c-12 -5 -29 -20 -37 -33 -15 -21 -16 -374 -14 -3625 l3
-3601 23 -23 c20 -20 34 -23 126 -26 98 -4 104 -2 132 21 l29 25 0 3612 0
3612 -28 24 c-25 22 -37 24 -120 23 -51 0 -102 -4 -114 -9z"/>
<path d="M2803 10036 l-28 -24 -3 -3607 -2 -3607 31 -29 c30 -28 35 -29 131
-29 97 0 100 1 129 29 l29 29 0 3600 0 3600 -29 31 c-29 31 -30 31 -129 31
-92 0 -103 -2 -129 -24z"/>
<path d="M10374 10037 l-29 -25 -3 -3601 -2 -3600 24 -28 c23 -27 28 -28 130
-31 l106 -4 30 30 30 31 -2 3600 -3 3600 -23 23 c-20 20 -34 23 -126 26 -98 4
-104 2 -132 -21z"/>
<path d="M3439 9941 l-29 -30 2 -3510 3 -3510 23 -23 c20 -20 34 -23 125 -26
96 -3 104 -1 132 22 l30 24 3 3512 2 3511 -29 30 c-29 28 -32 29 -131 29 -99
0 -102 -1 -131 -29z"/>
<path d="M9133 9960 c-12 -5 -29 -20 -37 -33 -15 -21 -16 -365 -14 -3530 l3
-3506 23 -23 c21 -21 31 -23 132 -23 101 0 111 2 132 23 l23 23 3 3487 c1
1918 0 3502 -3 3520 -10 53 -52 72 -155 71 -47 0 -95 -4 -107 -9z"/>
<path d="M1539 9859 l-29 -31 0 -3428 0 -3428 29 -31 c29 -31 30 -31 129 -31
96 0 101 1 131 29 l31 29 0 3432 0 3432 -31 29 c-30 28 -35 29 -131 29 -99 0
-100 0 -129 -31z"/>
<path d="M11000 9849 l-30 -34 2 -3422 3 -3422 23 -23 c20 -20 34 -23 126 -26
98 -4 104 -2 132 21 l29 25 3 3426 2 3425 -24 28 c-23 27 -28 28 -130 31
l-105 4 -31 -33z"/>
<path d="M4090 9708 c-13 -8 -30 -25 -37 -38 -10 -20 -12 -682 -10 -3282 l2
-3257 23 -23 c21 -21 31 -23 133 -23 109 0 111 0 135 28 l24 28 -2 3264 -3
3264 -23 23 c-20 20 -34 23 -120 26 -65 2 -105 -2 -122 -10z"/>
<path d="M8480 9692 l-30 -31 2 -3265 3 -3265 23 -23 c20 -20 34 -23 125 -26
96 -3 104 -1 132 22 l30 24 2 3264 3 3263 -24 30 c-24 29 -26 30 -130 33
l-106 4 -30 -30z"/>
<path d="M933 9640 c-12 -5 -29 -20 -37 -33 -15 -21 -16 -335 -14 -3211 l3
-3188 30 -24 c28 -23 36 -25 132 -22 91 3 105 6 125 26 l23 23 0 3195 0 3196
-30 24 c-27 21 -40 24 -120 23 -49 0 -100 -4 -112 -9z"/>
<path d="M11650 9637 c-13 -7 -30 -24 -37 -37 -10 -20 -13 -674 -13 -3202 l0
-3177 24 -28 c24 -28 26 -28 135 -28 102 0 112 2 133 23 l23 23 3 3167 c1
1742 0 3182 -3 3200 -10 52 -52 72 -155 72 -48 0 -96 -6 -110 -13z"/>
<path d="M4714 9440 c-11 -4 -28 -20 -37 -34 -16 -24 -17 -226 -15 -3017 l3
-2991 29 -25 c28 -24 34 -25 134 -21 102 3 104 4 128 33 l24 30 -3 2993 -2
2994 -28 24 c-25 22 -37 24 -120 23 -51 0 -101 -4 -113 -9z"/>
<path d="M7845 9426 l-30 -24 -3 -2997 -2 -2996 29 -30 c29 -28 32 -29 128
-29 88 0 101 2 128 24 l30 24 3 2997 2 2996 -29 30 c-29 28 -32 29 -128 29
-88 0 -101 -2 -128 -24z"/>
<path d="M5321 9221 l-31 -29 2 -2792 3 -2792 30 -24 c27 -22 40 -24 127 -24
88 0 99 2 125 24 l28 24 3 2792 2 2791 -29 30 c-29 28 -32 29 -129 29 -96 0
-101 -1 -131 -29z"/>
<path d="M7212 9222 l-32 -30 2 -2791 3 -2790 23 -23 c20 -20 35 -23 116 -26
105 -4 150 10 166 54 6 16 10 1057 10 2799 l0 2774 -24 28 c-23 27 -29 28
-128 31 -104 4 -104 4 -136 -26z"/>
<path d="M5953 9086 l-28 -24 0 -2662 0 -2662 30 -24 c27 -22 40 -24 127 -24
88 0 99 2 125 24 l28 24 0 2662 0 2662 -30 24 c-27 22 -40 24 -127 24 -88 0
-99 -2 -125 -24z"/>
<path d="M6581 9081 l-31 -29 0 -2650 0 -2650 29 -31 c29 -31 30 -31 128 -31
88 0 101 2 128 24 l30 24 3 2655 2 2655 -29 31 c-29 31 -30 31 -129 31 -96 0
-101 -1 -131 -29z"/>
</g>
</svg>
